<?xml version="1.0" encoding="UTF-8" standalone="no"?>
<!-- Created with Inkscape (http://www.inkscape.org/) -->

<svg
   width="139.89651mm"
   height="125.92351mm"
   viewBox="0 0 139.89651 125.92351"
   version="1.1"
   id="svg1042"
   inkscape:version="1.1.2 (0a00cf5339, 2022-02-04)"
   sodipodi:docname="hungary.svg"
   xmlns:inkscape="http://www.inkscape.org/namespaces/inkscape"
   xmlns:sodipodi="http://sodipodi.sourceforge.net/DTD/sodipodi-0.dtd"
   xmlns="http://www.w3.org/2000/svg"
   xmlns:svg="http://www.w3.org/2000/svg">
  <sodipodi:namedview
     id="namedview1044"
     pagecolor="#505050"
     bordercolor="#ffffff"
     borderopacity="1"
     inkscape:pageshadow="0"
     inkscape:pageopacity="0"
     inkscape:pagecheckerboard="1"
     inkscape:document-units="mm"
     showgrid="false"
     inkscape:zoom="1.1374105"
     inkscape:cx="194.7406"
     inkscape:cy="308.15611"
     inkscape:window-width="1920"
     inkscape:window-height="978"
     inkscape:window-x="0"
     inkscape:window-y="30"
     inkscape:window-maximized="1"
     inkscape:current-layer="layer1" />
  <defs
     id="defs1039" />
  <g
     inkscape:label="Layer 1"
     inkscape:groupmode="layer"
     id="layer1"
     transform="translate(-8.3125279,-9.5405619)">
    <path
       d="m 11.574355,101.89959 c 0.03774,-4.150388 -0.463498,-44.603234 -0.361268,-66.162869 0.350945,-7.238947 10.681922,-10.359963 14.983106,-4.528133 3.192557,4.234961 1.513449,9.805887 1.936629,14.716716 0.07841,5.669941 -0.160653,11.355842 0.126333,17.015298 1.084424,6.54519 15.131889,6.308155 16.567011,0.143549 2.959451,-5.13746 4.351831,-11.550053 9.408379,-15.105596 5.974121,-2.633231 12.652569,-3.204176 18.958426,-4.859396 10.646685,-2.090826 19.000465,-5.315574 29.839789,-6.224399 5.48334,-0.340462 12.38232,1.139745 15.85342,-4.424206 5.033,-6.206175 9.71506,-12.731574 14.97372,-18.732611 4.95126,-4.3789189 13.23854,1.023449 11.46768,7.350872 -1.00921,10.135975 -1.82726,20.297626 -2.9567,30.417455 -1.29805,4.723698 -7.46879,4.323495 -9.40395,8.725718 -3.06537,4.182759 -6.79251,7.942251 -9.34083,12.457111 -2.86054,7.0717 6.81166,11.513172 4.63087,18.602147 -1.43644,5.97418 -7.9292,7.822151 -12.32613,11.167794 -5.96761,3.25056 -11.11092,8.38993 -12.63975,15.21692 -1.8276,5.40182 -1.83882,12.26039 -8.052938,14.36048 -5.614929,1.54512 -11.538368,0.20968 -17.298027,0.31441 -5.923746,-0.38858 -11.001764,0.73071 -14.967123,-4.83704 -2.428367,-4.15644 -3.374605,-9.47355 -8.084815,-11.90662 -4.293051,-3.15357 -6.950317,-6.74791 -8.548564,-12.46162 -0.190452,-3.655787 -6.258906,-8.476783 -10.840958,-7.467759 -5.025251,1.074823 -6.070233,6.728769 -6.154894,10.547289 -0.285803,5.29414 0.678244,10.76423 -0.714117,15.91106 -2.508448,6.88548 -13.202158,7.40516 -16.365294,0.79444 -1.981494,-4.76397 -1.063687,-10.0881 -1.04161,-15.12929 0.30733,-2.47347 0.410695,-3.7934 0.351605,-5.90172 z"
       style="fill:none;stroke:#1d262d;stroke-width:5.277;stroke-miterlimit:10;stroke-dasharray:none"
       id="path4"
       sodipodi:nodetypes="ccccccccccccccccccccccccccccc" />
  </g>
</svg>
